<svg width="83" height="58" viewBox="0 0 83 58" fill="none" xmlns="http://www.w3.org/2000/svg">
<path opacity="0.25" d="M24.1601 57.44C19.7601 57.44 16.0134 56.7067 12.9201 55.24C9.85341 53.7467 7.37341 51.6933 5.48008 49.08C3.58675 46.44 2.20008 43.3867 1.32008 39.92C0.440078 36.4533 7.83801e-05 32.7467 7.83801e-05 28.8C7.83801e-05 23.2 0.813412 18.24 2.44008 13.92C4.09341 9.57334 6.66675 6.17334 10.1601 3.72001C13.6534 1.24 18.2001 2.86102e-06 23.8001 2.86102e-06C28.0667 2.86102e-06 31.7067 0.706671 34.7201 2.12001C37.7601 3.53334 40.2534 5.53334 42.2001 8.12001C44.1467 10.68 45.5734 13.72 46.4801 17.24C47.4134 20.7333 47.8801 24.56 47.8801 28.72C47.8801 34.4533 47.0267 39.48 45.3201 43.8C43.6401 48.0933 41.0401 51.44 37.5201 53.84C34.0267 56.24 29.5734 57.44 24.1601 57.44ZM24.0001 44.76C25.9734 44.76 27.5467 44.08 28.7201 42.72C29.8934 41.3333 30.7334 39.44 31.2401 37.04C31.7467 34.6133 32.0001 31.84 32.0001 28.72C32.0001 25.4933 31.7201 22.68 31.1601 20.28C30.6267 17.88 29.7601 16.0267 28.5601 14.72C27.3867 13.3867 25.8667 12.72 24.0001 12.72C22.0801 12.72 20.5201 13.3867 19.3201 14.72C18.1467 16.0533 17.2801 17.92 16.7201 20.32C16.1867 22.72 15.9201 25.52 15.9201 28.72C15.9201 31.8667 16.1734 34.6533 16.6801 37.08C17.2134 39.48 18.0667 41.36 19.2401 42.72C20.4134 44.08 22.0001 44.76 24.0001 44.76ZM55.5901 23.12L52.0701 11.32C55.8834 9.56 59.6967 7.81334 63.5101 6.08001C67.3501 4.32001 71.1767 2.56001 74.9901 0.800007L74.3901 14.4C71.2701 15.84 68.1367 17.2933 64.9901 18.76C61.8701 20.2 58.7367 21.6533 55.5901 23.12ZM66.9501 56.32C66.9501 53.4933 66.9501 50.76 66.9501 48.12C66.9501 45.48 66.9501 42.4933 66.9501 39.16V23.64C66.9501 20.9467 66.9501 18.2667 66.9501 15.6C66.9501 12.9067 66.9501 10.2133 66.9501 7.52001L74.9901 0.800007L82.4301 1.20001C82.4301 4.42667 82.4301 7.64 82.4301 10.84C82.4301 14.0133 82.4301 17.2133 82.4301 20.44V39.16C82.4301 42.4933 82.4301 45.48 82.4301 48.12C82.4301 50.76 82.4301 53.4933 82.4301 56.32H66.9501Z" fill="white"/>
</svg>
