<svg width="94" height="58" viewBox="0 0 94 58" fill="none" xmlns="http://www.w3.org/2000/svg">
<path opacity="0.25" d="M24.1601 57.44C19.7601 57.44 16.0134 56.7067 12.9201 55.24C9.85341 53.7467 7.37341 51.6933 5.48008 49.08C3.58675 46.44 2.20008 43.3867 1.32008 39.92C0.440078 36.4533 7.83801e-05 32.7467 7.83801e-05 28.8C7.83801e-05 23.2 0.813412 18.24 2.44008 13.92C4.09341 9.57334 6.66675 6.17334 10.1601 3.72001C13.6534 1.24 18.2001 2.86102e-06 23.8001 2.86102e-06C28.0667 2.86102e-06 31.7067 0.706671 34.7201 2.12001C37.7601 3.53334 40.2534 5.53334 42.2001 8.12001C44.1467 10.68 45.5734 13.72 46.4801 17.24C47.4134 20.7333 47.8801 24.56 47.8801 28.72C47.8801 34.4533 47.0267 39.48 45.3201 43.8C43.6401 48.0933 41.0401 51.44 37.5201 53.84C34.0267 56.24 29.5734 57.44 24.1601 57.44ZM24.0001 44.76C25.9734 44.76 27.5467 44.08 28.7201 42.72C29.8934 41.3333 30.7334 39.44 31.2401 37.04C31.7467 34.6133 32.0001 31.84 32.0001 28.72C32.0001 25.4933 31.7201 22.68 31.1601 20.28C30.6267 17.88 29.7601 16.0267 28.5601 14.72C27.3867 13.3867 25.8667 12.72 24.0001 12.72C22.0801 12.72 20.5201 13.3867 19.3201 14.72C18.1467 16.0533 17.2801 17.92 16.7201 20.32C16.1867 22.72 15.9201 25.52 15.9201 28.72C15.9201 31.8667 16.1734 34.6533 16.6801 37.08C17.2134 39.48 18.0667 41.36 19.2401 42.72C20.4134 44.08 22.0001 44.76 24.0001 44.76ZM53.4051 56.32V46.08C54.7651 44.9333 56.1251 43.8 57.4851 42.68C58.8451 41.56 60.2051 40.44 61.5651 39.32C64.7384 36.68 67.4584 34.24 69.7251 32C72.0184 29.7333 73.7784 27.5467 75.0051 25.44C76.2317 23.3333 76.8451 21.2133 76.8451 19.08C76.8451 17.0267 76.2451 15.48 75.0451 14.44C73.8717 13.3733 72.0984 12.84 69.7251 12.84C68.4717 12.84 67.1917 13 65.8851 13.32C64.5784 13.64 63.2717 14.0667 61.9651 14.6C60.6584 15.1333 59.3651 15.76 58.0851 16.48C56.8051 17.1733 55.5651 17.9333 54.3651 18.76L53.0851 4.2C54.3384 3.64 55.7251 3.12 57.2451 2.64001C58.7651 2.13334 60.3784 1.68001 62.0851 1.28001C63.7917 0.880006 65.5651 0.573339 67.4051 0.360005C69.2451 0.120004 71.1117 2.86102e-06 73.0051 2.86102e-06C77.2717 2.86102e-06 80.8717 0.680003 83.8051 2.04C86.7651 3.37334 88.9917 5.32001 90.4851 7.88C92.0051 10.4133 92.7651 13.4533 92.7651 17C92.7651 19.72 92.2451 22.4267 91.2051 25.12C90.1651 27.7867 88.5384 30.4133 86.3251 33C84.1384 35.5867 81.3251 38.1467 77.8851 40.68L70.5651 46.16L68.7651 43.2H78.0451C80.5784 43.2 83.1117 43.2 85.6451 43.2C88.1784 43.2 90.6984 43.2 93.2051 43.2V56.32H53.4051Z" fill="white"/>
</svg>
