<svg width="95" height="58" viewBox="0 0 95 58" fill="none" xmlns="http://www.w3.org/2000/svg">
<path opacity="0.25" d="M24.1601 57.48C19.7601 57.48 16.0134 56.7467 12.9201 55.28C9.85341 53.7867 7.37341 51.7333 5.48008 49.12C3.58675 46.48 2.20008 43.4267 1.32008 39.96C0.440078 36.4933 7.83801e-05 32.7867 7.83801e-05 28.84C7.83801e-05 23.24 0.813412 18.28 2.44008 13.96C4.09341 9.61333 6.66675 6.21333 10.1601 3.76C13.6534 1.28 18.2001 0.0399961 23.8001 0.0399961C28.0667 0.0399961 31.7067 0.746664 34.7201 2.16C37.7601 3.57333 40.2534 5.57333 42.2001 8.16C44.1467 10.72 45.5734 13.76 46.4801 17.28C47.4134 20.7733 47.8801 24.6 47.8801 28.76C47.8801 34.4933 47.0267 39.52 45.3201 43.84C43.6401 48.1333 41.0401 51.48 37.5201 53.88C34.0267 56.28 29.5734 57.48 24.1601 57.48ZM24.0001 44.8C25.9734 44.8 27.5467 44.12 28.7201 42.76C29.8934 41.3733 30.7334 39.48 31.2401 37.08C31.7467 34.6533 32.0001 31.88 32.0001 28.76C32.0001 25.5333 31.7201 22.72 31.1601 20.32C30.6267 17.92 29.7601 16.0667 28.5601 14.76C27.3867 13.4267 25.8667 12.76 24.0001 12.76C22.0801 12.76 20.5201 13.4267 19.3201 14.76C18.1467 16.0933 17.2801 17.96 16.7201 20.36C16.1867 22.76 15.9201 25.56 15.9201 28.76C15.9201 31.9067 16.1734 34.6933 16.6801 37.12C17.2134 39.52 18.0667 41.4 19.2401 42.76C20.4134 44.12 22.0001 44.8 24.0001 44.8ZM72.7251 57.52C70.6984 57.52 68.7251 57.4133 66.8051 57.2C64.9117 56.9867 63.1117 56.6933 61.4051 56.32C59.6984 55.9467 58.1251 55.52 56.6851 55.04C55.2717 54.56 54.0051 54.0533 52.8851 53.52L53.9651 39.64C55.3784 40.36 56.8184 41.0267 58.2851 41.64C59.7517 42.2533 61.2051 42.7867 62.6451 43.24C64.1117 43.6933 65.5384 44.0533 66.9251 44.32C68.3384 44.56 69.6984 44.68 71.0051 44.68C73.8584 44.68 75.8717 44.2 77.0451 43.24C78.2184 42.2533 78.8051 40.9733 78.8051 39.4C78.8051 37.5867 78.0984 36.24 76.6851 35.36C75.2717 34.4533 73.1651 34 70.3651 34C69.0584 34 67.7651 34 66.4851 34C65.2317 34 63.9651 34 62.6851 34V23.48C63.8051 23.48 64.9117 23.48 66.0051 23.48C67.1251 23.48 68.2451 23.48 69.3651 23.48C71.2584 23.48 72.7917 23.2667 73.9651 22.84C75.1651 22.4133 76.0451 21.8133 76.6051 21.04C77.1651 20.2667 77.4451 19.3067 77.4451 18.16C77.4451 16.4 76.8051 15.0933 75.5251 14.24C74.2717 13.36 72.5384 12.92 70.3251 12.92C69.0984 12.92 67.8317 13.0533 66.5251 13.32C65.2184 13.5867 63.9117 13.96 62.6051 14.44C61.2984 14.8933 60.0051 15.44 58.7251 16.08C57.4451 16.6933 56.2051 17.36 55.0051 18.08L53.7251 4.04C54.9517 3.53333 56.2984 3.04 57.7651 2.56C59.2317 2.05333 60.8051 1.61333 62.4851 1.24C64.1651 0.866665 65.8984 0.573331 67.6851 0.359997C69.4717 0.119998 71.2851 -9.53674e-07 73.1251 -9.53674e-07C77.4984 -9.53674e-07 81.1917 0.613332 84.2051 1.84C87.2184 3.04 89.4984 4.73333 91.0451 6.92C92.5917 9.08 93.3651 11.64 93.3651 14.6C93.3651 16.8933 92.9251 18.8533 92.0451 20.48C91.1651 22.1067 89.9784 23.4133 88.4851 24.4C86.9917 25.36 85.3117 26.0267 83.4451 26.4V27.52C84.8851 27.7867 86.2717 28.2533 87.6051 28.92C88.9384 29.56 90.1384 30.4267 91.2051 31.52C92.2717 32.5867 93.1117 33.9067 93.7251 35.48C94.3651 37.0533 94.6851 38.8933 94.6851 41C94.6851 44.2267 93.8984 47.08 92.3251 49.56C90.7784 52.04 88.3784 53.9867 85.1251 55.4C81.8984 56.8133 77.7651 57.52 72.7251 57.52Z" fill="white"/>
</svg>
